<?xml version="1.0" encoding="UTF-8"?>
<svg width="18px" height="17px" viewBox="0 0 18 17" version="1.1" xmlns="http://www.w3.org/2000/svg" xmlns:xlink="http://www.w3.org/1999/xlink">
    <!-- Generator: Sketch 59.1 (86144) - https://sketch.com -->
    <title>Shape</title>
    <desc>Created with Sketch.</desc>
    <g id="Page-1" stroke="none" stroke-width="1" fill="none" fill-rule="evenodd">
        <g id="detail-catagorical-market-numbers" transform="translate(-154.000000, -104.000000)" fill="#FFFFFF" fill-rule="nonzero">
            <g id="Group-2" transform="translate(146.000000, 98.000000)">
                <path d="M24.5441176,9.39365178 L22.8991597,9.39365178 C23.1071429,8.90840398 23.1638655,8.36492645 23.0315126,7.82144892 C22.8235294,7.00623262 22.237395,6.38511544 21.4810924,6.13278659 C20.6869748,5.88045773 19.8739496,6.03573703 19.25,6.57921456 L16.9810924,8.57843548 L14.7121849,6.57921456 C14.0882353,6.03573703 13.2563025,5.86104782 12.4810924,6.11337668 C11.7058824,6.36570553 11.1197479,7.00623262 10.9306723,7.80203901 C10.7983193,8.32610663 10.855042,8.88899407 11.0630252,9.37424187 L9.41806723,9.37424187 C8.64285714,9.37424187 8,10.014769 8,10.8299853 L8,12.868026 C8,13.6250126 8.56722689,14.2267198 9.28571429,14.3043595 L9.28571429,21.5442566 C9.28571429,22.340063 9.90966387,23 10.7037815,23 L23.2962185,23 C24.0714286,23 24.7142857,22.3594729 24.7142857,21.5442566 L24.7142857,14.3043595 C25.4327731,14.2267198 26,13.6250126 26,12.868026 L26,10.8299853 C25.9621849,10.0341789 25.3382353,9.39365178 24.5441176,9.39365178 Z M20.157563,7.68557954 C20.4033613,7.47207051 20.7247899,7.39443086 21.0462185,7.51089033 C21.3676471,7.60793989 21.5756303,7.86026874 21.6701681,8.19023725 C21.7457983,8.48138592 21.6890756,8.7725346 21.5,9.00545354 C21.3298319,9.23837249 21.0462185,9.37424187 20.762605,9.37424187 L20.762605,9.37424187 L18.2478992,9.37424187 L20.157563,7.68557954 Z M12.2920168,8.17082733 C12.3676471,7.84085883 12.5945378,7.60793989 12.9159664,7.49148042 C13.0105042,7.45266059 13.105042,7.45266059 13.1995798,7.45266059 C13.407563,7.45266059 13.6155462,7.53030024 13.8046218,7.68557954 L15.7142857,9.35483196 L13.1995798,9.35483196 C13.1995798,9.35483196 13.1995798,9.35483196 13.1995798,9.35483196 C12.9159664,9.35483196 12.6512605,9.21896257 12.4621849,8.98604363 C12.2920168,8.75312469 12.2352941,8.46197601 12.2920168,8.17082733 Z M9.41806723,10.8299853 L24.5441176,10.8299853 L24.5441176,12.868026 L9.41806723,12.868026 L9.41806723,10.8299853 Z M10.6848739,21.5442566 L10.6848739,14.3237694 L23.2773109,14.3237694 L23.2773109,21.5442566 L10.6848739,21.5442566 L10.6848739,21.5442566 Z" id="Shape"></path>
            </g>
        </g>
    </g>
</svg>