<?xml version="1.0" encoding="UTF-8"?>
<svg width="55px" height="55px" viewBox="0 0 55 55" version="1.1" xmlns="http://www.w3.org/2000/svg" xmlns:xlink="http://www.w3.org/1999/xlink">
    <title>Group</title>
    <g id="Page-1" stroke="none" stroke-width="1" fill="none" fill-rule="evenodd">
        <g id="order-succesfull" transform="translate(-155.000000, -352.000000)" fill="#FFFFFF" fill-rule="nonzero">
            <g id="Group" transform="translate(155.000000, 352.000000)">
                <g>
                    <path d="M35.3811149,18.8850967 L24.6302617,30.6029579 L19.2263936,25.0284414 C18.486917,24.2889647 17.3492605,24.1751991 16.4960182,24.8577929 C15.5858931,25.5403868 15.4721274,26.8486917 16.1547213,27.701934 L22.6962457,36.0637088 C22.8100114,36.1774744 22.923777,36.3481229 23.0944255,36.4618885 C24.1751991,37.3151308 25.7110353,37.1444824 26.5642776,36.1205916 L26.6211604,36.0637088 L38.5096701,21.6154721 C39.1922639,20.7622298 39.1353811,19.5676906 38.3390216,18.8282139 C37.4288965,18.0318544 36.1205916,18.0887372 35.3811149,18.8850967 Z" id="Path"></path>
                    <path d="M27.3037543,0.284414107 C12.4004551,0.284414107 0.284414107,12.4004551 0.284414107,27.3037543 C0.284414107,42.2070535 12.4004551,54.3230944 27.3037543,54.3230944 C42.2070535,54.3230944 54.3230944,42.2070535 54.3230944,27.3037543 C54.3230944,12.4004551 42.2070535,0.284414107 27.3037543,0.284414107 Z M27.3037543,49.6018203 C15.0170648,49.6018203 5.00568828,39.5904437 5.00568828,27.3037543 C5.00568828,15.0170648 15.0170648,5.00568828 27.3037543,5.00568828 C39.5904437,5.00568828 49.6018203,15.0170648 49.6018203,27.3037543 C49.6018203,39.5904437 39.5904437,49.6018203 27.3037543,49.6018203 Z" id="Shape"></path>
                </g>
            </g>
        </g>
    </g>
</svg>