<?xml version="1.0" encoding="UTF-8"?>
<svg width="30px" height="30px" viewBox="0 0 30 30" version="1.1" xmlns="http://www.w3.org/2000/svg" xmlns:xlink="http://www.w3.org/1999/xlink">
    <!-- Generator: Sketch 59.1 (86144) - https://sketch.com -->
    <title>profile</title>
    <desc>Created with Sketch.</desc>
    <g id="Page-1" stroke="none" stroke-width="1" fill="none" fill-rule="evenodd">
        <g id="Tabbar---AFTER-login" transform="translate(-229.000000, -86.000000)" fill="#FFFFFF" fill-rule="nonzero">
            <g id="tabbar" transform="translate(77.000000, 72.000000)">
                <path d="M175,14 C178.865993,14 182,17.1340068 182,21 L182,21 L182,37 C182,40.8659932 178.865993,44 175,44 L175,44 L159,44 C155.134007,44 152,40.8659932 152,37 L152,37 L152,21 C152,17.1340068 155.134007,14 159,14 L159,14 Z M175,16 L159,16 C156.238576,16 154,18.2385763 154,21 L154,21 L154,37 C154,39.7614237 156.238576,42 159,42 L159,42 L175,42 C177.761424,42 180,39.7614237 180,37 L180,37 L180,21 C180,18.2385763 177.761424,16 175,16 L175,16 Z M171.386656,31.64992 C171.683296,31.385248 172.138624,31.411168 172.403296,31.708384 C172.667968,32.005312 172.64176,32.460352 172.344832,32.725024 C170.776672,34.122976 168.76384,34.821952 166.751296,34.821952 C164.738752,34.821952 162.72592,34.122688 161.15776,32.725024 C160.860832,32.460352 160.834624,32.005312 161.099296,31.708384 C161.363968,31.411168 161.819296,31.385248 162.115936,31.64992 C164.715136,33.96688 168.787456,33.96688 171.386656,31.64992 Z M171.865888,25 C172.769815,25 173.502592,25.7327773 173.502592,26.636704 C173.502592,27.5406307 172.769815,28.273408 171.865888,28.273408 C170.961961,28.273408 170.229184,27.5406307 170.229184,26.636704 C170.229184,25.7327773 170.961961,25 171.865888,25 Z M161.636704,25 C162.540631,25 163.273408,25.7327773 163.273408,26.636704 C163.273408,27.5406307 162.540631,28.273408 161.636704,28.273408 C160.732777,28.273408 160,27.5406307 160,26.636704 C160,25.7327773 160.732777,25 161.636704,25 Z" id="profile"></path>
            </g>
        </g>
    </g>
</svg>