<?xml version="1.0" encoding="UTF-8"?>
<svg width="16px" height="17px" viewBox="0 0 16 17" version="1.1" xmlns="http://www.w3.org/2000/svg" xmlns:xlink="http://www.w3.org/1999/xlink">
    <!-- Generator: Sketch 59.1 (86144) - https://sketch.com -->
    <title>Shape</title>
    <desc>Created with Sketch.</desc>
    <g id="Page-1" stroke="none" stroke-width="1" fill="none" fill-rule="evenodd">
        <g id="profile" transform="translate(-32.000000, -258.000000)" fill="#FFFFFF" fill-rule="nonzero">
            <g id="referral-ID" transform="translate(1.000000, 247.000000)">
                <g id="Group" transform="translate(31.000000, 11.637800)">
                    <path d="M7.2,0 C6.5863768,0 5.9681048,0.23968 5.5031248,0.70472 L3.0078128,3.2 L2.4,3.2 C1.0842376,3.2 0,4.28424 0,5.6 L0,13.6 C0,14.91576 1.0842376,16 2.4,16 L12,16 C13.3157624,16 14.4,14.91576 14.4,13.6 L14.4,12 L15.2,12 C15.6418095,11.9999558 16,11.6418095 16,11.2 L16,8 C16,7.5581905 15.6418095,7.20004417 15.2,7.2 L14.4,7.2 L14.4,5.6 C14.4,4.28208 13.323528,3.07624 11.9281248,3.20312 L12,3.20312 L11.3906216,3.20312 L8.896872,0.70784 C8.4318944,0.23968 7.8136232,0 7.2,0 Z M7.2,1.6 C7.4043608,1.6 7.6038376,1.6744 7.7656248,1.83592 L9.1296872,3.2 L5.2703128,3.2 L6.6343752,1.83592 C6.7961792,1.67416 6.9956392,1.6 7.2,1.6 Z M12.0718752,4.79688 C12.4419952,4.76328 12.8,5.14512 12.8,5.6 L12.8,7.2 L12,7.2 C10.6842352,7.2 9.6,8.28424 9.6,9.6 C9.6,10.91576 10.6842352,12 12,12 L12.8,12 L12.8,13.6 C12.8,14.05704 12.4570376,14.4 12,14.4 L2.4,14.4 C1.9429624,14.4 1.6,14.05704 1.6,13.6 L1.6,5.6 C1.6,5.14296 1.9429624,4.8 2.4,4.8 L12,4.8 C12.0239452,4.8010766 12.0479268,4.8010766 12.071872,4.8 L12.0718752,4.79688 Z M12.0000032,8.8 L14.4000032,8.8 L14.4000032,10.4 L12.0000032,10.4 C11.542968,10.4 11.2000032,10.05704 11.2000032,9.6 C11.2000032,9.14296 11.542968,8.8 12.0000032,8.8 Z" id="Shape"></path>
                </g>
            </g>
        </g>
    </g>
</svg>