<?xml version="1.0" encoding="UTF-8"?>
<svg width="30px" height="30px" viewBox="0 0 30 30" version="1.1" xmlns="http://www.w3.org/2000/svg" xmlns:xlink="http://www.w3.org/1999/xlink">
    <title>Group 2</title>
    <g id="Page-1" stroke="none" stroke-width="1" fill="none" fill-rule="evenodd">
        <g id="Tabbar---AFTER-login" transform="translate(-174.000000, -87.000000)">
            <g id="tabbar" transform="translate(77.000000, 72.000000)">
                <g id="Group-2" transform="translate(98.000000, 16.000000)">
                    <rect id="Rectangle-Copy" stroke="#FFFFFF" stroke-width="2" x="0" y="0" width="28" height="28" rx="14"></rect>
                    <path d="M18.6666667,12.8333333 L15.1666667,12.8333333 L15.1666667,9.33333333 C15.1666667,8.68933333 14.644,8.16666667 14,8.16666667 C13.356,8.16666667 12.8333333,8.68933333 12.8333333,9.33333333 L12.8333333,12.8333333 L9.33333333,12.8333333 C8.68933333,12.8333333 8.16666667,13.356 8.16666667,14 C8.16666667,14.644 8.68933333,15.1666667 9.33333333,15.1666667 L12.8333333,15.1666667 L12.8333333,18.6666667 C12.8333333,19.3106667 13.356,19.8333333 14,19.8333333 C14.644,19.8333333 15.1666667,19.3106667 15.1666667,18.6666667 L15.1666667,15.1666667 L18.6666667,15.1666667 C19.3106667,15.1666667 19.8333333,14.644 19.8333333,14 C19.8333333,13.356 19.3106667,12.8333333 18.6666667,12.8333333 Z" id="Path" fill="#FFFFFF" fill-rule="nonzero"></path>
                </g>
            </g>
        </g>
    </g>
</svg>