<?xml version="1.0" encoding="UTF-8"?>
<svg width="8px" height="8px" viewBox="0 0 8 8" version="1.1" xmlns="http://www.w3.org/2000/svg" xmlns:xlink="http://www.w3.org/1999/xlink">
    <!-- Generator: Sketch 59.1 (86144) - https://sketch.com -->
    <title>Path</title>
    <desc>Created with Sketch.</desc>
    <g id="Page-1" stroke="none" stroke-width="1" fill="none" fill-rule="evenodd">
        <g id="detail-catagorical-market-numbers" transform="translate(-28.000000, -372.000000)" fill="#FF009C">
            <path d="M34.7025455,372.0208 L28.6702545,372.0208 C28.3000953,372.0208 28,372.321074 28,372.691055 C28,373.061035 28.3000953,373.361309 28.6702545,373.361309 L33.0169,373.361309 L28.2279759,378.150501 C27.9662192,378.412347 27.9695258,378.839523 28.2312825,379.101369 C28.4930392,379.363215 28.920751,379.36679 29.1825078,379.104944 L34.0322909,374.254982 L34.0322909,378.723345 C34.0322909,379.093326 34.3323862,379.3936 34.7025455,379.3936 C35.0727047,379.3936 35.3728,379.093326 35.3728,378.723345 L35.3728,372.691055 C35.3728,372.321074 35.0727047,372.0208 34.7025455,372.0208 Z" id="Path" transform="translate(31.686400, 375.707200) rotate(90.000000) translate(-31.686400, -375.707200) "></path>
        </g>
    </g>
</svg>