<?xml version="1.0" encoding="UTF-8"?>
<svg width="18px" height="18px" viewBox="0 0 18 18" version="1.1" xmlns="http://www.w3.org/2000/svg" xmlns:xlink="http://www.w3.org/1999/xlink">
    <!-- Generator: Sketch 59.1 (86144) - https://sketch.com -->
    <title>Shape</title>
    <desc>Created with Sketch.</desc>
    <g id="Page-1" stroke="none" stroke-width="1" fill="none" fill-rule="evenodd">
        <g id="profile" transform="translate(-311.000000, -195.000000)" fill="#FFFFFF" fill-rule="nonzero">
            <path d="M324.387304,195.219581 L314.275609,205.30965 C314.157435,205.427177 314.080739,205.579063 314.055304,205.743443 L313.52313,209.215736 C313.484,209.468749 313.572043,209.725276 313.758696,209.90098 C313.905435,210.03959 314.098739,210.114948 314.296739,210.114948 C314.350348,210.114948 314.403957,210.109481 314.457565,210.098158 L317.77387,209.403934 C317.922565,209.373088 318.05913,209.298902 318.166348,209.191918 L326.010826,201.363739 C326.011217,201.363348 326.012,201.362958 326.012391,201.362568 C326.012391,201.362568 326.013174,201.361396 326.013565,201.361006 L328.277652,199.101848 C328.583261,198.796905 328.583261,198.302592 328.277652,197.997649 L325.493913,195.219971 C325.200435,194.926741 324.680783,194.926741 324.387304,195.219581 Z M317.224087,207.923338 L315.240957,208.338389 L315.563783,206.23268 L316.01613,205.781317 L317.693261,207.454796 L317.224087,207.923338 Z M318.79987,206.350596 L317.12313,204.677118 L322.675348,199.136599 L324.352478,200.810077 L318.79987,206.350596 Z M325.459087,199.705878 L323.781957,198.032399 L324.940609,196.87627 L326.617739,198.549749 L325.459087,199.705878 Z M311.990262,213 L328.009738,213 C328.556362,213 329,212.650155 329,212.219095 C329,211.788036 328.556362,211.438191 328.009738,211.438191 L311.990262,211.438191 C311.443638,211.438191 311,211.788036 311,212.219095 C311,212.650155 311.443142,213 311.990262,213 Z" id="Shape"></path>
        </g>
    </g>
</svg>