<?xml version="1.0" encoding="UTF-8"?>
<svg width="1270px" height="564px" viewBox="0 0 1270 564" version="1.1" xmlns="http://www.w3.org/2000/svg" xmlns:xlink="http://www.w3.org/1999/xlink">
    <title>Path lel</title>
    <g id="Page-1" stroke="none" stroke-width="1" fill="none" fill-rule="evenodd">
        <g id="dashboard-desktop-darktheme" transform="translate(0.000000, -35.000000)" fill="#2C2A43">
            <path d="M2226.24219,376.185873 C1786.36249,376.185873 1840.30164,74.6311496 1586.2866,74.6311496 C1409.11332,74.6311496 1349.17188,56.047271 1210,158.571463 C1167.35625,189.985973 1102.00468,308.353145 974.55982,308.353145 C836.296296,308.353145 755.237893,258.012275 686.767499,204.007532 C667.4934,188.805447 649.216771,173.313038 630.9424,158.571463 C595.903439,130.306224 557.788217,108.490716 519.92,85.2070366 C433.916745,32.3270129 281.983393,35.0230851 194.749188,35.0230851 C-22.0929178,35.0230851 -76.9398496,185.225571 -269,185.225571 L-245.757812,599 L2226.24219,598.99998 L2226.24219,376.185873 Z" id="Path-lel" transform="translate(978.621094, 317.000000) scale(1, -1) translate(-978.621094, -317.000000) "></path>
        </g>
    </g>
</svg>